<mxfile host="app.diagrams.net" modified="2022-06-14T08:05:27.084Z" agent="5.0 (Windows NT 10.0; Win64; x64) AppleWebKit/537.36 (KHTML, like Gecko) Chrome/101.0.0.0 Safari/537.36" etag="HHKhfYCQlVudn9ro3LmL" version="20.0.1" type="github">
  <diagram id="UIxzwHwv5xetjWFVVMlf" name="第 1 页">
    <mxGraphModel dx="1038" dy="571" grid="1" gridSize="10" guides="1" tooltips="1" connect="1" arrows="1" fold="1" page="1" pageScale="1" pageWidth="827" pageHeight="1169" math="0" shadow="0">
      <root>
        <mxCell id="0" />
        <mxCell id="1" parent="0" />
        <mxCell id="4Z196P3gDyeKt6cXookw-1" value="" style="whiteSpace=wrap;html=1;aspect=fixed;fillColor=#fff2cc;strokeColor=#d6b656;" vertex="1" parent="1">
          <mxGeometry x="279" y="60" width="360" height="360" as="geometry" />
        </mxCell>
        <mxCell id="4Z196P3gDyeKt6cXookw-11" style="edgeStyle=orthogonalEdgeStyle;rounded=0;orthogonalLoop=1;jettySize=auto;html=1;entryX=0;entryY=0.5;entryDx=0;entryDy=0;fontSize=14;strokeWidth=2;" edge="1" parent="1">
          <mxGeometry relative="1" as="geometry">
            <mxPoint x="390" y="111" as="sourcePoint" />
            <mxPoint x="510" y="111" as="targetPoint" />
          </mxGeometry>
        </mxCell>
        <mxCell id="4Z196P3gDyeKt6cXookw-2" value="ACC" style="rounded=0;whiteSpace=wrap;html=1;fontSize=14;strokeWidth=2;fillColor=#f8cecc;strokeColor=#b85450;" vertex="1" parent="1">
          <mxGeometry x="320" y="100" width="70" height="40" as="geometry" />
        </mxCell>
        <mxCell id="4Z196P3gDyeKt6cXookw-3" value="X" style="rounded=0;whiteSpace=wrap;html=1;fontSize=14;strokeWidth=2;fillColor=#f8cecc;strokeColor=#b85450;" vertex="1" parent="1">
          <mxGeometry x="315" y="360" width="70" height="40" as="geometry" />
        </mxCell>
        <mxCell id="4Z196P3gDyeKt6cXookw-12" style="edgeStyle=orthogonalEdgeStyle;rounded=0;orthogonalLoop=1;jettySize=auto;html=1;entryX=1;entryY=0.5;entryDx=0;entryDy=0;fontSize=14;strokeWidth=2;" edge="1" parent="1">
          <mxGeometry relative="1" as="geometry">
            <mxPoint x="510" y="128" as="sourcePoint" />
            <mxPoint x="390" y="128" as="targetPoint" />
          </mxGeometry>
        </mxCell>
        <mxCell id="4Z196P3gDyeKt6cXookw-4" value="MQ" style="rounded=0;whiteSpace=wrap;html=1;fontSize=14;strokeWidth=2;fillColor=#f8cecc;strokeColor=#b85450;" vertex="1" parent="1">
          <mxGeometry x="510" y="100" width="70" height="40" as="geometry" />
        </mxCell>
        <mxCell id="4Z196P3gDyeKt6cXookw-5" value="ALU" style="shape=trapezoid;perimeter=trapezoidPerimeter;whiteSpace=wrap;html=1;fixedSize=1;strokeWidth=2;fontSize=14;fillColor=#d5e8d4;strokeColor=#82b366;" vertex="1" parent="1">
          <mxGeometry x="295" y="220" width="120" height="60" as="geometry" />
        </mxCell>
        <mxCell id="4Z196P3gDyeKt6cXookw-6" value="" style="html=1;shadow=0;dashed=0;align=center;verticalAlign=middle;shape=mxgraph.arrows2.arrow;dy=0.6;dx=28.2;direction=north;notch=0;fontSize=14;strokeWidth=2;" vertex="1" parent="1">
          <mxGeometry x="330" y="140" width="20" height="80" as="geometry" />
        </mxCell>
        <mxCell id="4Z196P3gDyeKt6cXookw-7" value="" style="html=1;shadow=0;dashed=0;align=center;verticalAlign=middle;shape=mxgraph.arrows2.arrow;dy=0.6;dx=28.2;direction=north;notch=0;fontSize=14;strokeWidth=2;rotation=-180;" vertex="1" parent="1">
          <mxGeometry x="365" y="140" width="20" height="80" as="geometry" />
        </mxCell>
        <mxCell id="4Z196P3gDyeKt6cXookw-8" value="" style="html=1;shadow=0;dashed=0;align=center;verticalAlign=middle;shape=mxgraph.arrows2.arrow;dy=0.6;dx=28.2;direction=north;notch=0;fontSize=14;strokeWidth=2;" vertex="1" parent="1">
          <mxGeometry x="340" y="280" width="20" height="80" as="geometry" />
        </mxCell>
        <mxCell id="4Z196P3gDyeKt6cXookw-10" value="运算器" style="text;html=1;strokeColor=#6c8ebf;fillColor=#dae8fc;align=center;verticalAlign=middle;whiteSpace=wrap;rounded=0;fontSize=14;" vertex="1" parent="1">
          <mxGeometry x="429" y="20" width="60" height="30" as="geometry" />
        </mxCell>
      </root>
    </mxGraphModel>
  </diagram>
</mxfile>
